<?xml version="1.0" encoding="UTF-8" standalone="no"?>
<svg
   xmlns:dc="http://purl.org/dc/elements/1.1/"
   xmlns:cc="http://creativecommons.org/ns#"
   xmlns:rdf="http://www.w3.org/1999/02/22-rdf-syntax-ns#"
   xmlns:svg="http://www.w3.org/2000/svg"
   xmlns="http://www.w3.org/2000/svg"
   width="8.4666662mm"
   height="7.4513292mm"
   viewBox="0 0 29.999998 26.402348"
   id="svg2"
   version="1.1">
  <defs
     id="defs4" />
  <metadata
     id="metadata7">
    <rdf:RDF>
      <cc:Work
         rdf:about="">
        <dc:format>image/svg+xml</dc:format>
        <dc:type
           rdf:resource="http://purl.org/dc/dcmitype/StillImage" />
        <dc:title></dc:title>
      </cc:Work>
    </rdf:RDF>
  </metadata>
  <path
     id="rect4339"
     d="M 4 0 C 1.784 0 -1.3877788e-017 1.784 0 4 L 0 16 C 0 18.216 1.784 20 4 20 L 26 20 C 28.216 20 30 18.216 30 16 L 30 4 C 30 1.784 28.216 -1.3877788e-017 26 0 L 4 0 z M 7.5449219 7.9765625 A 2 2 0 0 1 9.5449219 9.9765625 A 2 2 0 0 1 7.5449219 11.976562 A 2 2 0 0 1 5.5449219 9.9765625 A 2 2 0 0 1 7.5449219 7.9765625 z M 15 7.9765625 A 2 2 0 0 1 17 9.9765625 A 2 2 0 0 1 15 11.976562 A 2 2 0 0 1 13 9.9765625 A 2 2 0 0 1 15 7.9765625 z M 22.455078 7.9765625 A 2 2 0 0 1 24.455078 9.9765625 A 2 2 0 0 1 22.455078 11.976562 A 2 2 0 0 1 20.455078 9.9765625 A 2 2 0 0 1 22.455078 7.9765625 z "
     style="opacity:1;fill:#000000;fill-opacity:1;stroke:none;stroke-width:2;stroke-linecap:round;stroke-linejoin:round;stroke-miterlimit:4;stroke-dasharray:4, 4;stroke-dashoffset:0;stroke-opacity:0.47706424" />
  <path
     id="path4286"
     d="m 6.2954,19.88075 0.026,6.02166 7.0549,-6.06567 z"
     style="fill:#000000;fill-rule:evenodd;stroke:#000000;stroke-width:1px;stroke-linecap:round;stroke-linejoin:round;stroke-opacity:1" />
</svg>
